:FULLY-SPECIFIED
:FORCE-ALL-JOINTS-BE-3DOF
:DEGREES
408
root 7.18138 13.7899 -34.2523 158.903 75.2249 152.733
lfemur 17.6133 -2.63941 -10.3091
ltibia 25.4706 0 0
lfoot -23.1396 33.2345 0
ltoes -26.9063 0 0
rfemur -66.464 -15.5607 8.45862
rtibia 79.2751 0 0
rfoot -13.9047 12.9455 0
rtoes 8.78003 0 0
lowerback 8.43049 4.88028 -11.7665
upperback -2.54719 5.1499 -1.19047
thorax -8.45079 3.0811 4.44475
lowerneck 0.565921 -11.6309 -11.3592
upperneck 3.32619 -15.816 9.2652
head 2.53358 -7.9077 4.01844
lclavicle -5.02428e-14 7.55382e-15 0
lhumerus -70.1293 -19.9689 106.449
lradius 100.215 0 0
lwrist 51.2828 0 0
lhand -9.90215 42.7777 0
lfingers 7.12502 0 0
lthumb 16.0779 72.1306 0
rclavicle -5.02428e-14 7.55382e-15 0
rhumerus 49.2803 -3.96409 -60.0157
rradius 19.9242 0 0
rwrist 18.6728 0 0
rhand -21.7192 -34.0765 0
rfingers 7.12502 0 0
rthumb 4.67989 -64.0049 0
409
root 7.18307 13.789 -34.2546 159.162 75.2329 152.989
lfemur 17.1796 -2.68132 -10.1958
ltibia 26.2099 0 0
lfoot -23.1388 33.1939 0
ltoes -26.7112 0 0
rfemur -66.4583 -15.5483 8.50053
rtibia 79.279 0 0
rfoot -13.9512 12.9363 0
rtoes 8.35815 0 0
lowerback 8.43343 4.88416 -11.6738
upperback -2.55358 5.16431 -1.1933
thorax -8.45194 3.0835 4.38784
lowerneck 0.552846 -11.6394 -11.3478
upperneck 3.28713 -15.8252 9.27497
head 2.52485 -7.91174 4.01944
lclavicle -4.37326e-15 1.05356e-14 0
lhumerus -70.1504 -19.9786 106.42
lradius 100.238 0 0
lwrist 51.251 0 0
lhand -9.79916 42.8152 0
lfingers 7.12502 0 0
lthumb 16.177 72.1601 0
rclavicle -4.37326e-15 1.05356e-14 0
rhumerus 49.2317 -3.91916 -59.8341
rradius 19.9709 0 0
rwrist 18.5472 0 0
rhand -21.7281 -33.3208 0
rfingers 7.12502 0 0
rthumb 4.67128 -63.2493 0
410
root 7.18525 13.7872 -34.2555 159.247 75.2199 153.057
lfemur 16.6899 -2.72865 -10.0678
ltibia 27.0465 0 0
lfoot -23.1378 33.1437 0
ltoes -26.4513 0 0
rfemur -66.4522 -15.5354 8.54435
rtibia 79.2601 0 0
rfoot -13.995 12.9275 0
rtoes 7.89508 0 0
lowerback 8.41829 4.88683 -11.6789
upperback -2.56099 5.1696 -1.18184
thorax -8.454 3.08704 4.40263
lowerneck 0.55933 -11.6358 -11.376
upperneck 3.24848 -15.8198 9.28579
head 2.51478 -7.90954 4.02848
lclavicle 4.09372e-15 -5.26779e-15 0
lhumerus -70.1842 -19.9654 106.427
lradius 100.267 0 0
lwrist 51.2266 0 0
lhand -9.77946 42.9078 0
lfingers 7.12502 0 0
lthumb 16.196 72.2512 0
rclavicle 4.09372e-15 -5.26779e-15 0
rhumerus 49.2941 -4.01079 -59.9346
rradius 19.8956 0 0
rwrist 18.7378 0 0
rhand -21.7724 -32.606 0
rfingers 7.12502 0 0
rthumb 4.62851 -62.5355 0
411
root 7.1863 13.7847 -34.2571 159.297 75.1858 153.078
lfemur 16.151 -2.78073 -9.92701
ltibia 27.969 0 0
lfoot -23.1367 33.0848 0
ltoes -26.1342 0 0
rfemur -66.446 -15.5221 8.58945
rtibia 79.2056 0 0
rfoot -14.0354 12.9195 0
rtoes 7.39717 0 0
lowerback 8.40914 4.89058 -11.6943
upperback -2.57162 5.17394 -1.17575
thorax -8.46346 3.09095 4.41678
lowerneck 0.553975 -11.6349 -11.3675
upperneck 3.2208 -15.8159 9.26617
head 2.50468 -7.9078 4.02246
lclavicle -4.1869e-14 -3.57812e-15 0
lhumerus -70.2204 -19.9544 106.459
lradius 100.279 0 0
lwrist 51.0973 0 0
lhand -9.84827 42.9166 0
lfingers 7.12502 0 0
lthumb 16.1298 72.2654 0
rclavicle -4.1869e-14 -3.57812e-15 0
rhumerus 49.2299 -3.82067 -59.519
rradius 19.9761 0 0
rwrist 18.3642 0 0
rhand -21.6774 -33.1399 0
rfingers 7.12502 0 0
rthumb 4.72027 -63.0674 0
412
root 7.18724 13.784 -34.2582 159.48 75.1906 153.212
lfemur 15.5701 -2.83688 -9.77521
ltibia 28.9659 0 0
lfoot -23.1355 33.0182 0
ltoes -25.7675 0 0
rfemur -66.4398 -15.5085 8.63518
rtibia 79.1188 0 0
rfoot -14.0717 12.9122 0
rtoes 6.87074 0 0
lowerback 8.37509 4.887 -11.6561
upperback -2.58456 5.17754 -1.17495
thorax -8.45461 3.09105 4.39804
lowerneck 0.537285 -11.6305 -11.3368
upperneck 3.19467 -15.8066 9.24884
head 2.49476 -7.90268 4.01368
lclavicle -8.48376e-14 2.55438e-14 0
lhumerus -70.2567 -19.9651 106.451
lradius 100.297 0 0
lwrist 50.9928 0 0
lhand -9.87399 42.9081 0
lfingers 7.12502 0 0
lthumb 16.105 72.2589 0
rclavicle -8.48376e-14 2.55438e-14 0
rhumerus 49.2791 -3.86086 -59.5609
rradius 19.9317 0 0
rwrist 18.4457 0 0
rhand -21.7407 -32.7508 0
rfingers 7.12502 0 0
rthumb 4.65915 -62.6796 0
413
root 7.18822 13.7838 -34.26 159.553 75.156 153.239
lfemur 14.9541 -2.89641 -9.61426
ltibia 30.0257 0 0
lfoot -23.1341 32.9447 0
ltoes -25.3589 0 0
rfemur -66.4335 -15.495 8.68091
rtibia 79.0028 0 0
rfoot -14.1031 12.9059 0
rtoes 6.32214 0 0
lowerback 8.33047 4.87145 -11.599
upperback -2.58068 5.16826 -1.2068
thorax -8.41337 3.08127 4.33826
lowerneck 0.518421 -11.6213 -11.3049
upperneck 3.16499 -15.7911 9.24182
head 2.48428 -7.89433 4.00813
lclavicle -6.67668e-14 2.0773e-14 0
lhumerus -70.2557 -19.9931 106.424
lradius 100.296 0 0
lwrist 50.9085 0 0
lhand -9.95973 42.892 0
lfingers 7.12502 0 0
lthumb 16.0224 72.2494 0
rclavicle -6.67668e-14 2.0773e-14 0
rhumerus 49.3711 -4.03314 -59.7823
rradius 19.836 0 0
rwrist 18.6368 0 0
rhand -21.6884 -33.1292 0
rfingers 7.12502 0 0
rthumb 4.70962 -63.0569 0
414
root 7.1889 13.7838 -34.2613 159.808 75.1579 153.448
lfemur 14.31 -2.95866 -9.44597
ltibia 31.1371 0 0
lfoot -23.1326 32.8653 0
ltoes -24.916 0 0
rfemur -66.4273 -15.4817 8.72601
rtibia 78.861 0 0
rfoot -14.1288 12.9008 0
rtoes 5.7577 0 0
lowerback 8.28851 4.86633 -11.5533
upperback -2.58078 5.17351 -1.18193
thorax -8.38768 3.08112 4.34237
lowerneck 0.485227 -11.6158 -11.3047
upperneck 3.15811 -15.7788 9.21056
head 2.48369 -7.88795 3.99804
lclavicle 3.10725e-14 9.74045e-15 0
lhumerus -70.248 -19.9912 106.443
lradius 100.286 0 0
lwrist 50.8334 0 0
lhand -9.95115 42.9355 0
lfingers 7.12502 0 0
lthumb 16.0307 72.2923 0
rclavicle 3.10725e-14 9.74045e-15 0
rhumerus 49.5081 -4.24518 -60.0788
rradius 19.7146 0 0
rwrist 18.9414 0 0
rhand -21.6669 -33.561 0
rfingers 7.12502 0 0
rthumb 4.73043 -63.4882 0
415
root 7.18829 13.7839 -34.2632 159.956 75.1731 153.533
lfemur 13.6449 -3.02294 -9.27219
ltibia 32.2885 0 0
lfoot -23.131 32.7809 0
ltoes -24.4464 0 0
rfemur -66.4212 -15.4688 8.76983
rtibia 78.6965 0 0
rfoot -14.1481 12.897 0
rtoes 5.18375 0 0
lowerback 8.24406 4.85768 -11.5309
upperback -2.58858 5.17112 -1.16296
thorax -8.36961 3.079 4.35404
lowerneck 0.465853 -11.594 -11.3035
upperneck 3.13413 -15.7471 9.22305
head 2.47735 -7.87156 4.00329
lclavicle -2.22204e-14 7.55382e-15 0
lhumerus -70.2372 -19.9476 106.456
lradius 100.253 0 0
lwrist 50.777 0 0
lhand -9.96014 42.9066 0
lfingers 7.12502 0 0
lthumb 16.022 72.2641 0
rclavicle -2.22204e-14 7.55382e-15 0
rhumerus 49.626 -4.37507 -60.2703
rradius 19.6258 0 0
rwrist 19.1561 0 0
rhand -21.6916 -32.9603 0
rfingers 7.12502 0 0
rthumb 4.70659 -62.888 0
416
root 7.18615 13.7826 -34.2617 160.1 75.1381 153.639
lfemur 12.9658 -3.08858 -9.09474
ltibia 33.4685 0 0
lfoot -23.1293 32.6924 0
ltoes -23.9577 0 0
rfemur -66.4155 -15.4564 8.81174
rtibia 78.5126 0 0
rfoot -14.1602 12.8945 0
rtoes 4.60664 0 0
lowerback 8.26165 4.85447 -11.5707
upperback -2.58914 5.16157 -1.12774
thorax -8.38666 3.07787 4.41402
lowerneck 0.452728 -11.5881 -11.3183
upperneck 3.09497 -15.7362 9.22486
head 2.46792 -7.86608 4.00704
lclavicle 1.26912e-14 1.8487e-14 0
lhumerus -70.2298 -19.9267 106.499
lradius 100.226 0 0
lwrist 50.7588 0 0
lhand -9.90505 42.9332 0
lfingers 7.12502 0 0
lthumb 16.0751 72.2864 0
rclavicle 1.26912e-14 1.8487e-14 0
rhumerus 49.7278 -4.52396 -60.4296
rradius 19.5681 0 0
rwrist 19.406 0 0
rhand -21.6419 -32.8564 0
rfingers 7.12502 0 0
rthumb 4.75453 -62.7831 0
417
root 7.18363 13.781 -34.2623 160.404 75.1504 153.916
lfemur 12.2797 -3.15489 -8.91546
ltibia 34.6657 0 0
lfoot -23.1275 32.6007 0
ltoes -23.4576 0 0
rfemur -66.41 -15.4448 8.8511
rtibia 78.3125 0 0
rfoot -14.1644 12.8937 0
rtoes 4.0327 0 0
lowerback 8.26164 4.84642 -11.5295
upperback -2.58249 5.15776 -1.08035
thorax -8.37913 3.07436 4.4437
lowerneck 0.398234 -11.5839 -11.302
upperneck 3.10095 -15.725 9.20761
head 2.47463 -7.85923 3.99692
lclavicle -3.17186e-14 -1.19271e-15 0
lhumerus -70.2124 -19.8761 106.529
lradius 100.197 0 0
lwrist 50.784 0 0
lhand -9.91687 42.9262 0
lfingers 7.12502 0 0
lthumb 16.0637 72.2803 0
rclavicle -3.17186e-14 -1.19271e-15 0
rhumerus 49.7415 -4.50538 -60.3239
rradius 19.6406 0 0
rwrist 19.3832 0 0
rhand -21.6322 -32.7887 0
rfingers 7.12502 0 0
rthumb 4.76395 -62.7152 0
418
root 7.1802 13.7817 -34.2613 160.807 75.1724 154.287
lfemur 11.5935 -3.2212 -8.73618
ltibia 35.8687 0 0
lfoot -23.1258 32.5067 0
ltoes -22.9537 0 0
rfemur -66.4051 -15.4341 8.88729
rtibia 78.0994 0 0
rfoot -14.1348 12.8801 0
rtoes 3.46825 0 0
lowerback 8.26179 4.83165 -11.4314
upperback -2.57207 5.14985 -1.06468
thorax -8.35751 3.0645 4.40921
lowerneck 0.36344 -11.5782 -11.2588
upperneck 3.07412 -15.7144 9.23577
head 2.47009 -7.85217 3.9985
lclavicle -5.84551e-15 -2.38542e-15 0
lhumerus -70.1901 -19.853 106.505
lradius 100.186 0 0
lwrist 50.7646 0 0
lhand -9.78196 42.965 0
lfingers 7.12502 0 0
lthumb 16.1936 72.3086 0
rclavicle -5.84551e-15 -2.38542e-15 0
rhumerus 49.6954 -4.37382 -60.0145
rradius 19.7929 0 0
rwrist 19.0862 0 0
rhand -21.4501 -33.7026 0
rfingers 7.12502 0 0
rthumb 4.93971 -63.625 0
419
root 7.17584 13.7828 -34.2609 161.133 75.1593 154.614
lfemur 10.9144 -3.28684 -8.55873
ltibia 37.0659 0 0
lfoot -23.124 32.4114 0
ltoes -22.4536 0 0
rfemur -66.4006 -15.4245 8.91965
rtibia 77.8766 0 0
rfoot -14.0501 12.8412 0
rtoes 2.91965 0 0
lowerback 8.30848 4.81906 -11.3072
upperback -2.55233 5.14049 -1.0761
thorax -8.34687 3.05188 4.32858
lowerneck 0.380416 -11.5838 -11.24
upperneck 3.00901 -15.7251 9.33099
head 2.45541 -7.85638 4.02583
lclavicle -2.72273e-14 -1.19271e-15 0
lhumerus -70.1962 -19.8865 106.489
lradius 100.176 0 0
lwrist 50.7418 0 0
lhand -9.78457 42.8167 0
lfingers 7.12502 0 0
lthumb 16.1911 72.1605 0
rclavicle -2.72273e-14 -1.19271e-15 0
rhumerus 49.7324 -4.5322 -60.1461
rradius 19.7852 0 0
rwrist 19.2805 0 0
rhand -21.5661 -32.6983 0
rfingers 7.12502 0 0
rthumb 4.82778 -62.6233 0
